<svg width="40" height="40" viewBox="0 0 40 40" fill="none" xmlns="http://www.w3.org/2000/svg">
<circle cx="20" cy="20" r="20" fill="#F2F3FB"/>
<path fill-rule="evenodd" clip-rule="evenodd" d="M15.5613 16.1736C15.5618 13.7301 17.5433 11.75 19.9867 11.75C22.4305 11.75 24.4113 13.7308 24.4113 16.1746C24.4113 18.6183 22.4306 20.6 19.9867 20.6H19.9597L19.9576 20.6C17.522 20.5917 15.5535 18.6097 15.5613 16.1736ZM15.5613 16.1736C15.5613 16.1733 15.5613 16.1729 15.5613 16.1726L16.1565 16.1746H15.5613C15.5613 16.1743 15.5613 16.1739 15.5613 16.1736ZM19.9867 12.9405C18.2002 12.9405 16.7517 14.3884 16.7517 16.1746V16.1766H16.7517C16.7457 17.9557 18.1829 19.403 19.9608 19.4095H19.9867C21.7728 19.4095 23.2208 17.9611 23.2208 16.1746C23.2208 14.3883 21.773 12.9405 19.9867 12.9405ZM15.6011 22.7116C16.7879 22.3137 18.3625 22.1931 19.9867 22.1931C21.6205 22.1931 23.1956 22.3183 24.3808 22.7214C24.9765 22.924 25.5172 23.211 25.9141 23.627C26.3247 24.0574 26.5565 24.6011 26.5565 25.2447C26.5565 25.8895 26.3226 26.433 25.9097 26.8617C25.5108 27.2758 24.9682 27.56 24.3719 27.76C23.1852 28.158 21.6108 28.2788 19.9867 28.2788C18.3528 28.2788 16.7776 28.1538 15.5922 27.7508C14.9964 27.5483 14.4556 27.2613 14.0586 26.8453C13.6479 26.4148 13.416 25.871 13.416 25.2272C13.416 24.5822 13.6499 24.0386 14.063 23.6099C14.4619 23.1957 15.0047 22.9115 15.6011 22.7116ZM14.9204 24.4358C14.7166 24.6473 14.6065 24.8965 14.6065 25.2272C14.6065 25.5593 14.7165 25.8103 14.9199 26.0234C15.1369 26.2509 15.4824 26.4561 15.9754 26.6237C16.9675 26.961 18.38 27.0883 19.9867 27.0883C21.5855 27.0883 22.9984 26.9651 23.9933 26.6313C24.4877 26.4655 24.8345 26.2619 25.0523 26.0358C25.2559 25.8244 25.366 25.5752 25.366 25.2447C25.366 24.9129 25.256 24.6619 25.0527 24.4488C24.8357 24.2213 24.4903 24.0161 23.9975 23.8485C23.0055 23.5111 21.5932 23.3836 19.9867 23.3836C18.3878 23.3836 16.9746 23.5067 15.9795 23.8403C15.485 24.0061 15.1382 24.2097 14.9204 24.4358Z" fill="#7062AB"/>
</svg>
