<svg width="21" height="21" viewBox="0 0 21 21" fill="none" xmlns="http://www.w3.org/2000/svg">
<circle cx="10.084" cy="10.084" r="10" fill="#BA1639"/>
<path d="M13.7687 10.624H12.541V9.73939H13.7687V8.32666H14.6669V9.73939H15.9036V10.624H14.6669V12.0819H13.7687V10.624Z" fill="white"/>
<path d="M8.02734 11.4006C8.02734 11.1749 8.05142 10.9748 8.09956 10.8003C8.1477 10.6258 8.2139 10.4723 8.29816 10.3399C8.38542 10.2075 8.48772 10.0947 8.60507 10.0014C8.72243 9.90511 8.84881 9.82236 8.98421 9.75316V9.71705C8.88491 9.66288 8.78411 9.59518 8.6818 9.51394C8.58251 9.4327 8.49224 9.3334 8.41099 9.21605C8.32975 9.09569 8.26355 8.95577 8.2124 8.79629C8.16124 8.6338 8.13567 8.44875 8.13567 8.24112V7.6995C8.13567 7.44975 8.16576 7.2331 8.22594 7.04955C8.28612 6.866 8.36435 6.70954 8.46064 6.58015C8.55994 6.45076 8.67428 6.34695 8.80367 6.26871C8.93306 6.18747 9.06545 6.12428 9.20086 6.07915C9.33927 6.03401 9.47618 6.00392 9.61159 5.98888C9.75001 5.97383 9.87638 5.96631 9.99073 5.96631C10.1081 5.96631 10.2345 5.97383 10.3699 5.98888C10.5053 6.00392 10.6422 6.03401 10.7806 6.07915C10.919 6.12428 11.0514 6.18747 11.1778 6.26871C11.3072 6.34695 11.4215 6.45076 11.5208 6.58015C11.6201 6.70653 11.6998 6.86149 11.76 7.04504C11.8202 7.22859 11.8503 7.44524 11.8503 7.69499V8.23661C11.8503 8.44423 11.8247 8.62929 11.7736 8.79177C11.7224 8.95125 11.6562 9.09117 11.575 9.21153C11.4937 9.32888 11.402 9.42818 11.2996 9.50942C11.2004 9.59067 11.1011 9.65837 11.0018 9.71253V9.74864C11.1402 9.81785 11.2665 9.9006 11.3809 9.99689C11.4982 10.0902 11.599 10.203 11.6833 10.3354C11.7706 10.4678 11.8383 10.6213 11.8864 10.7958C11.9346 10.9703 11.9586 11.1704 11.9586 11.3961V11.87C11.9586 12.1348 11.9315 12.3665 11.8774 12.5651C11.8232 12.7637 11.748 12.9352 11.6517 13.0796C11.5584 13.2241 11.4486 13.3429 11.3222 13.4362C11.1958 13.5295 11.0589 13.6047 10.9115 13.6619C10.7671 13.716 10.6151 13.7536 10.4556 13.7747C10.2992 13.7988 10.1427 13.8108 9.98621 13.8108C9.82974 13.8108 9.67328 13.7988 9.51681 13.7747C9.36034 13.7536 9.20838 13.716 9.06094 13.6619C8.91651 13.6077 8.7811 13.534 8.65472 13.4407C8.52834 13.3444 8.41852 13.2256 8.32524 13.0841C8.23497 12.9397 8.16275 12.7682 8.10859 12.5696C8.05442 12.371 8.02734 12.1393 8.02734 11.8745V11.4006ZM10.0449 9.33791C10.1322 9.33791 10.2134 9.32437 10.2886 9.29729C10.3669 9.2672 10.4346 9.21755 10.4917 9.14834C10.5489 9.07914 10.594 8.98586 10.6271 8.8685C10.6602 8.75115 10.6768 8.60371 10.6768 8.42618V7.78977C10.6768 7.47082 10.6226 7.22859 10.5143 7.06309C10.409 6.8976 10.2345 6.81485 9.99073 6.81485C9.747 6.81485 9.57247 6.8991 9.46716 7.06761C9.36485 7.23611 9.3137 7.47984 9.3137 7.7988V8.43069C9.3137 8.60221 9.32724 8.74664 9.35432 8.86399C9.38441 8.97833 9.42654 9.07161 9.4807 9.14383C9.53486 9.21304 9.59955 9.26269 9.67478 9.29278C9.75301 9.32287 9.84028 9.33791 9.93656 9.33791H10.0449ZM9.2144 11.9693C9.2144 12.1649 9.23546 12.3259 9.27759 12.4522C9.32273 12.5756 9.3799 12.6734 9.4491 12.7456C9.52132 12.8148 9.60407 12.863 9.69735 12.8901C9.79063 12.9171 9.88692 12.9307 9.98621 12.9307C10.0855 12.9307 10.1818 12.9171 10.2751 12.8901C10.3714 12.863 10.4556 12.8133 10.5278 12.7411C10.6001 12.6689 10.6587 12.5711 10.7039 12.4477C10.749 12.3214 10.7716 12.1604 10.7716 11.9648V11.1162C10.7716 10.9477 10.7535 10.8048 10.7174 10.6875C10.6843 10.5671 10.6362 10.4693 10.573 10.3941C10.5098 10.3158 10.4331 10.2602 10.3428 10.2271C10.2525 10.191 10.1532 10.1729 10.0449 10.1729H9.93205C9.71239 10.1729 9.53787 10.2496 9.40848 10.4031C9.27909 10.5536 9.2144 10.7928 9.2144 11.1208V11.9693Z" fill="white"/>
<path d="M4.57456 12.8631H5.46824V7.60489L4.51137 8.44892L4.00586 7.85764L5.75711 6.03418H6.62822L6.6237 6.04321L6.62822 6.03869V12.8631H7.51738V13.7433H4.57456V12.8631Z" fill="white"/>
</svg>
