<svg xmlns="http://www.w3.org/2000/svg" width="100%" height="100%" viewBox="0 0 72 72" stroke-linejoin="round" stroke-miterlimit="2"><path d="M37.083 19.5c-.889 0-2.805-.417-5.751-1.25-2.888-.833-5.36-1.25-7.414-1.25-4.779 0-8.75 1.999-11.917 6-3.111 4.054-4.668 9.249-4.668 15.583 0 6.888 2.055 13.889 6.166 21 4.112 7.167 8.279 10.75 12.5 10.75 1.333 0 3.167-.473 5.501-1.418 2.166-.888 4.167-1.332 6.001-1.332 1.778 0 3.861.417 6.249 1.25 2.446.888 4.418 1.334 5.916 1.334 3.611 0 7.196-2.695 10.751-8.085 1.166-1.778 2.166-3.542 2.999-5.292s1.528-3.458 2.084-5.124c-2.499-.778-4.694-2.529-6.584-5.251-1.943-2.777-2.917-5.889-2.917-9.333 0-3.166.918-6.027 2.752-8.583.998-1.445 2.582-3.111 4.75-5.001a22.46 22.46 0 0 0-2.169-2.333 30.98 30.98 0 0 0-2.166-1.833c-2.611-1.778-5.583-2.667-8.915-2.667-2.001 0-4.418.473-7.252 1.418S38.195 19.5 37.083 19.5zm12.75-16.833c0-.223-.015-.473-.041-.751s-.097-.61-.209-.999c-4.889 1.111-8.374 3.18-10.457 6.207s-3.152 6.598-3.208 10.709c1.778-.166 3.194-.389 4.25-.667 1.443-.501 2.973-1.5 4.583-3 1.722-1.778 2.999-3.694 3.832-5.75s1.251-3.972 1.251-5.75z"/></svg>