<svg width="32" height="33" viewBox="0 0 32 33" fill="none" xmlns="http://www.w3.org/2000/svg">
<circle cx="16" cy="16.2258" r="16" fill="#F2F3FB"/>
<path fill-rule="evenodd" clip-rule="evenodd" d="M12.7995 8.42603C13.1309 8.42603 13.3995 8.69465 13.3995 9.02603V10.026H18.5995V9.02603C18.5995 8.69465 18.8681 8.42603 19.1995 8.42603C19.5309 8.42603 19.7995 8.69465 19.7995 9.02603V10.026H20.7995C22.0145 10.026 22.9995 11.011 22.9995 12.226V21.826C22.9995 23.0411 22.0145 24.026 20.7995 24.026H11.1995C9.98449 24.026 8.99951 23.0411 8.99951 21.826V12.226C8.99951 11.011 9.98449 10.026 11.1995 10.026H12.1995V9.02603C12.1995 8.69465 12.4681 8.42603 12.7995 8.42603ZM12.1995 11.226H11.1995C10.6472 11.226 10.1995 11.6737 10.1995 12.226V14.826H21.7995V12.226C21.7995 11.6737 21.3518 11.226 20.7995 11.226H19.7995V12.226C19.7995 12.5574 19.5309 12.826 19.1995 12.826C18.8681 12.826 18.5995 12.5574 18.5995 12.226V11.226H13.3995V12.226C13.3995 12.5574 13.1309 12.826 12.7995 12.826C12.4681 12.826 12.1995 12.5574 12.1995 12.226V11.226ZM21.7995 16.026H10.1995V21.826C10.1995 22.3783 10.6472 22.826 11.1995 22.826H20.7995C21.3518 22.826 21.7995 22.3783 21.7995 21.826V16.026ZM15.9995 17.226C16.3309 17.226 16.5995 17.4947 16.5995 17.826V18.826H17.5995C17.9309 18.826 18.1995 19.0947 18.1995 19.426C18.1995 19.7574 17.9309 20.026 17.5995 20.026H16.5995V21.026C16.5995 21.3574 16.3309 21.626 15.9995 21.626C15.6681 21.626 15.3995 21.3574 15.3995 21.026V20.026H14.3995C14.0681 20.026 13.7995 19.7574 13.7995 19.426C13.7995 19.0947 14.0681 18.826 14.3995 18.826H15.3995V17.826C15.3995 17.4947 15.6681 17.226 15.9995 17.226Z" fill="#7062AB"/>
</svg>
