<svg width="21" height="20" viewBox="0 0 21 20" fill="none" xmlns="http://www.w3.org/2000/svg">
<path d="M5.49943 7.91699C5.49943 5.38569 7.55146 3.33366 10.0828 3.33366C12.325 3.33366 14.1928 4.94464 14.5886 7.07256C14.6441 7.37095 14.8575 7.61557 15.1456 7.71112C16.8045 8.26133 17.9994 9.8257 17.9994 11.667C17.9994 13.9682 16.134 15.8337 13.8328 15.8337C13.3725 15.8337 12.9994 16.2068 12.9994 16.667C12.9994 17.1272 13.3725 17.5003 13.8328 17.5003C17.0544 17.5003 19.6661 14.8887 19.6661 11.667C19.6661 9.25661 18.2046 7.18947 16.1214 6.29997C15.4085 3.63199 12.9759 1.66699 10.0828 1.66699C6.63098 1.66699 3.83276 4.46521 3.83276 7.91699C3.83276 8.00056 3.83441 8.08378 3.83767 8.16662C2.3415 9.02982 1.33276 10.6465 1.33276 12.5003C1.33276 15.2617 3.57134 17.5003 6.33276 17.5003C6.793 17.5003 7.1661 17.1272 7.1661 16.667C7.1661 16.2068 6.793 15.8337 6.33276 15.8337C4.49181 15.8337 2.99943 14.3413 2.99943 12.5003C2.99943 11.1192 3.83958 9.93239 5.03997 9.42673C5.38734 9.2804 5.59323 8.91913 5.54209 8.54569C5.514 8.34054 5.49943 8.13069 5.49943 7.91699Z" fill="#98A2B3"/>
<path d="M9.94579 11.8775C10.2615 11.5968 10.7373 11.5968 11.0531 11.8775L12.3031 12.9886C12.6471 13.2944 12.678 13.8211 12.3723 14.1651C12.1048 14.466 11.6682 14.5274 11.3328 14.3333V18.3337C11.3328 18.7939 10.9597 19.167 10.4994 19.167C10.0392 19.167 9.6661 18.7939 9.6661 18.3337V14.3333C9.33068 14.5274 8.89408 14.466 8.62659 14.1651C8.32082 13.8211 8.35181 13.2944 8.69579 12.9886L9.94579 11.8775Z" fill="#98A2B3"/>
</svg>
