<svg width="16" height="16" viewBox="0 0 16 16" fill="none" xmlns="http://www.w3.org/2000/svg">
<path d="M6.33376 1.63574C6.06807 1.63574 5.83008 1.8001 5.73598 2.04857L5.58923 2.43611C5.27462 2.40467 4.98476 2.3733 4.75012 2.34695C4.57471 2.32726 4.43052 2.31041 4.33037 2.29852L4.21483 2.28465L4.17559 2.27985C3.82525 2.23647 3.50557 2.48525 3.46219 2.8356C3.4188 3.18594 3.66764 3.50513 4.01799 3.54851L4.06068 3.55373L4.17956 3.568C4.28206 3.58017 4.42899 3.59734 4.60747 3.61738C4.96412 3.65742 5.44819 3.70912 5.95607 3.75547C6.64115 3.81799 7.39211 3.87296 7.93177 3.87296C8.47144 3.87296 9.22239 3.81799 9.90748 3.75547C10.4154 3.70912 10.8994 3.65742 11.2561 3.61738C11.4346 3.59734 11.5815 3.58017 11.684 3.568L11.8029 3.55373L11.8455 3.54852C12.1958 3.50514 12.4447 3.18594 12.4014 2.8356C12.358 2.48525 12.0388 2.23641 11.6885 2.27979L11.6487 2.28465L11.5332 2.29852C11.433 2.31041 11.2888 2.32726 11.1134 2.34695C10.8788 2.3733 10.5889 2.40467 10.2743 2.43611L10.1276 2.04857C10.0335 1.8001 9.79548 1.63574 9.52978 1.63574H6.33376Z" fill="#EF3852"/>
<path d="M7.29257 8.02779C7.29257 7.67476 7.00639 7.38858 6.65336 7.38858C6.30034 7.38858 6.01416 7.67476 6.01416 8.02779V11.2238C6.01416 11.5768 6.30034 11.863 6.65336 11.863C7.00639 11.863 7.29257 11.5768 7.29257 11.2238V8.02779Z" fill="#EF3852"/>
<path d="M9.21018 7.38858C9.56321 7.38858 9.84939 7.67476 9.84939 8.02779V11.2238C9.84939 11.5768 9.56321 11.863 9.21018 11.863C8.85716 11.863 8.57098 11.5768 8.57098 11.2238V8.02779C8.57098 7.67476 8.85716 7.38858 9.21018 7.38858Z" fill="#EF3852"/>
<path fill-rule="evenodd" clip-rule="evenodd" d="M12.3485 5.66309C12.4064 4.85209 11.7072 4.20191 10.9126 4.29375C10.0995 4.38771 8.84477 4.51216 7.93177 4.51216C7.01877 4.51216 5.76406 4.38771 4.95098 4.29375C4.15636 4.20191 3.45716 4.85208 3.51509 5.66309L4.06272 13.3299C4.10423 13.9111 4.53713 14.4024 5.13119 14.4918C5.76822 14.5876 6.93713 14.7406 7.93251 14.7394C8.91566 14.7383 10.0893 14.5859 10.7292 14.491C11.3242 14.4027 11.7593 13.911 11.801 13.3281L12.3485 5.66309ZM11.0593 5.5637C11.0616 5.56345 11.0633 5.5636 11.0633 5.5636L11.0649 5.56398C11.0664 5.56447 11.0686 5.56564 11.0708 5.56773C11.0723 5.56911 11.0733 5.5708 11.0733 5.5708L11.0733 5.572L10.5264 13.2287C9.89314 13.3223 8.80782 13.46 7.93103 13.461C7.04474 13.4621 5.96614 13.3241 5.33725 13.23L4.79025 5.572L4.79021 5.5708C4.79021 5.5708 4.79129 5.56911 4.79275 5.56773C4.79495 5.56564 4.79718 5.56447 4.7986 5.56398L4.80029 5.5636C4.80029 5.5636 4.80199 5.56345 4.80421 5.5637C5.61874 5.65783 6.9381 5.79057 7.93177 5.79057C8.92545 5.79057 10.2448 5.65783 11.0593 5.5637Z" fill="#EF3852"/>
</svg>
