<svg width="40" height="40" viewBox="0 0 40 40" fill="none" xmlns="http://www.w3.org/2000/svg">
<circle cx="20" cy="20" r="20" fill="#F2F3FB"/>
<path d="M26.25 14.5833L25.7336 22.9375C25.6016 25.0719 25.5357 26.1392 25.0007 26.9065C24.7361 27.2858 24.3956 27.606 24.0006 27.8466C23.2017 28.3333 22.1325 28.3333 19.9939 28.3333C17.8526 28.3333 16.7819 28.3333 15.9825 27.8457C15.5873 27.6047 15.2467 27.2839 14.9822 26.9039C14.4474 26.1354 14.3829 25.0667 14.2538 22.9293L13.75 14.5833" stroke="#7062AB" stroke-width="1.5" stroke-linecap="round"/>
<path d="M12.5 14.5834H27.5M23.3797 14.5834L22.8109 13.4099C22.433 12.6303 22.244 12.2405 21.9181 11.9974C21.8458 11.9435 21.7693 11.8955 21.6892 11.854C21.3283 11.6667 20.8951 11.6667 20.0287 11.6667C19.1407 11.6667 18.6967 11.6667 18.3297 11.8618C18.2484 11.9051 18.1708 11.955 18.0977 12.0111C17.768 12.264 17.5839 12.668 17.2155 13.4761L16.7108 14.5834" stroke="#7062AB" stroke-width="1.5" stroke-linecap="round"/>
<path d="M17.917 23.75V18.75" stroke="#7062AB" stroke-width="1.5" stroke-linecap="round"/>
<path d="M22.083 23.75V18.75" stroke="#7062AB" stroke-width="1.5" stroke-linecap="round"/>
</svg>
