<svg width="32" height="33" viewBox="0 0 32 33" fill="none" xmlns="http://www.w3.org/2000/svg">
<path fill-rule="evenodd" clip-rule="evenodd" d="M21.9716 3.40799C23.8455 3.29088 25.6933 3.94152 27.0857 5.21678C28.361 6.60916 29.0117 8.45698 28.9075 10.3438V22.4979C29.0247 24.3847 28.361 26.2325 27.0987 27.6249C25.7064 28.9002 23.8455 29.5508 21.9716 29.4337H9.81753C7.93066 29.5508 6.08282 28.9002 4.69043 27.6249C3.41516 26.2325 2.76451 24.3847 2.88163 22.4979V10.3438C2.76451 8.45698 3.41516 6.60916 4.69043 5.21678C6.08282 3.94152 7.93066 3.29088 9.81753 3.40799H21.9716ZM14.5672 22.7322L23.3249 13.9485C24.1187 13.1417 24.1187 11.8404 23.3249 11.0466L21.6332 9.35494C20.8264 8.54814 19.5251 8.54814 18.7183 9.35494L17.8464 10.2398C17.7163 10.3699 17.7163 10.5912 17.8464 10.7213C17.8464 10.7213 19.9155 12.7773 19.9545 12.8294C20.0977 12.9855 20.1888 13.1937 20.1888 13.428C20.1888 13.8964 19.8114 14.2868 19.3299 14.2868C19.1087 14.2868 18.9005 14.1957 18.7573 14.0526L16.5842 11.8924C16.4801 11.7883 16.2979 11.7883 16.1938 11.8924L9.98662 18.0996C9.55719 18.529 9.30994 19.1016 9.29693 19.7132L9.21885 22.7972C9.21885 22.9664 9.2709 23.1225 9.38802 23.2397C9.50514 23.3568 9.66129 23.4218 9.83046 23.4218H12.8885C13.5131 23.4218 14.1117 23.1746 14.5672 22.7322Z" fill="#7062AB"/>
</svg>
