<svg width="11" height="12" viewBox="0 0 11 12" fill="none" xmlns="http://www.w3.org/2000/svg">
<path fill-rule="evenodd" clip-rule="evenodd" d="M4.2568 9.63319L8.04882 4.72939C8.25491 4.46494 8.32818 4.15921 8.25949 3.84791C8.19995 3.56491 8.02592 3.29582 7.76488 3.09169L7.12829 2.586C6.57415 2.14526 5.88719 2.19166 5.49333 2.69735L5.06741 3.24989C5.01246 3.31902 5.0262 3.42109 5.09489 3.47676C5.09489 3.47676 6.17113 4.33968 6.19403 4.35824C6.2673 4.42783 6.32226 4.52061 6.336 4.63196C6.3589 4.85001 6.20777 5.05414 5.98336 5.08198C5.87803 5.0959 5.77727 5.06342 5.704 5.00311L4.5728 4.10307C4.51785 4.06178 4.43541 4.0706 4.38961 4.12627L1.70131 7.60579C1.52728 7.82384 1.46774 8.10684 1.52728 8.38056L1.87076 9.86979C1.88908 9.94866 1.95778 10.0043 2.04021 10.0043L3.55152 9.98578C3.82631 9.98114 4.08277 9.85588 4.2568 9.63319ZM6.3734 9.16931H8.83776C9.07819 9.16931 9.27375 9.36741 9.27375 9.61097C9.27375 9.855 9.07819 10.0526 8.83776 10.0526H6.3734C6.13297 10.0526 5.93741 9.855 5.93741 9.61097C5.93741 9.36741 6.13297 9.16931 6.3734 9.16931Z" fill="white"/>
</svg>
