<svg width="40" height="40" viewBox="0 0 40 40" fill="none" xmlns="http://www.w3.org/2000/svg">
<circle cx="20" cy="20" r="20" fill="#F2F3FB"/>
<path fill-rule="evenodd" clip-rule="evenodd" d="M15.5613 16.1738C15.5618 13.7303 17.5433 11.7502 19.9867 11.7502C22.4305 11.7502 24.4113 13.731 24.4113 16.1748C24.4113 18.6185 22.4306 20.6002 19.9867 20.6002H19.9597L19.9576 20.6002C17.522 20.592 15.5535 18.6099 15.5613 16.1738ZM15.5613 16.1738C15.5613 16.1735 15.5613 16.1732 15.5613 16.1728L16.1565 16.1748H15.5613C15.5613 16.1745 15.5613 16.1742 15.5613 16.1738ZM19.9867 12.9407C18.2002 12.9407 16.7517 14.3887 16.7517 16.1748V16.1769H16.7517C16.7457 17.9559 18.1829 19.4033 19.9608 19.4098H19.9867C21.7728 19.4098 23.2208 17.9613 23.2208 16.1748C23.2208 14.3885 21.773 12.9407 19.9867 12.9407ZM15.6011 22.7118C16.7879 22.3139 18.3625 22.1933 19.9867 22.1933C21.6205 22.1933 23.1956 22.3186 24.3808 22.7217C24.9765 22.9243 25.5172 23.2112 25.9141 23.6272C26.3247 24.0576 26.5565 24.6014 26.5565 25.2449C26.5565 25.8898 26.3226 26.4332 25.9097 26.8619C25.5108 27.276 24.9682 27.5602 24.3719 27.7603C23.1852 28.1583 21.6108 28.2791 19.9867 28.2791C18.3528 28.2791 16.7776 28.154 15.5922 27.751C14.9964 27.5485 14.4556 27.2616 14.0586 26.8455C13.6479 26.4151 13.416 25.8712 13.416 25.2275C13.416 24.5824 13.6499 24.0389 14.063 23.6101C14.4619 23.196 15.0047 22.9118 15.6011 22.7118ZM14.9204 24.436C14.7166 24.6475 14.6065 24.8967 14.6065 25.2275C14.6065 25.5595 14.7165 25.8106 14.9199 26.0237C15.1369 26.2512 15.4824 26.4563 15.9754 26.6239C16.9675 26.9612 18.38 27.0886 19.9867 27.0886C21.5855 27.0886 22.9984 26.9653 23.9933 26.6316C24.4877 26.4657 24.8345 26.2622 25.0523 26.0361C25.2559 25.8246 25.366 25.5755 25.366 25.2449C25.366 24.9131 25.256 24.6621 25.0527 24.449C24.8357 24.2216 24.4903 24.0164 23.9975 23.8487C23.0055 23.5114 21.5932 23.3838 19.9867 23.3838C18.3878 23.3838 16.9746 23.5069 15.9795 23.8405C15.485 24.0063 15.1382 24.2099 14.9204 24.436Z" fill="#7062AB"/>
</svg>
