<svg width="40" height="40" viewBox="0 0 40 40" fill="none" xmlns="http://www.w3.org/2000/svg">
<circle cx="20" cy="20" r="20" fill="#F2F3FB"/>
<path d="M19.6341 15.2821L19.0926 14.7567C18.9902 14.6573 18.8915 14.562 18.7956 14.4693C18.6277 14.3072 18.4683 14.1532 18.3121 14L19.6341 15.2821ZM19.6341 15.2821L20.1562 14.7374M19.6341 15.2821L20.1562 14.7374M20.1562 14.7374C20.2682 14.6205 20.3662 14.5142 20.4579 14.4149C20.6319 14.2261 20.7828 14.0624 20.9629 13.8988L20.9632 13.8986M20.1562 14.7374L20.9632 13.8986M20.9632 13.8986C22.3669 12.6222 24.1777 12.4212 25.5405 13.2407L20.9632 13.8986ZM27.2914 17.7374L27.2915 17.7372C27.7339 15.9568 26.9762 14.1046 25.5406 13.2408L27.2914 17.7374ZM27.2914 17.7374C26.8697 19.4367 25.8371 20.8122 24.5731 22.1795L24.5731 22.1795M27.2914 17.7374L24.5731 22.1795M24.5731 22.1795C23.0958 23.7778 21.3856 25.1301 19.5863 26.4416C17.1113 24.6303 14.7996 22.7831 13.0942 20.3301L13.094 20.3297M24.5731 22.1795L13.094 20.3297M13.094 20.3297C12.3091 19.202 11.7759 18.0697 11.7508 16.7967L11.7508 16.7967M13.094 20.3297L11.7508 16.7967M11.7508 16.7967C11.7177 15.1172 12.6676 13.6211 14.0258 13.035L14.0259 13.0349M11.7508 16.7967L14.0259 13.0349M14.0259 13.0349C15.3799 12.4503 17.0761 12.7889 18.3119 13.9998L14.0259 13.0349Z" stroke="#7062AB" stroke-width="1.5"/>
</svg>
