<svg width="20" height="20" viewBox="0 0 20 20" fill="none" xmlns="http://www.w3.org/2000/svg">
<path fill-rule="evenodd" clip-rule="evenodd" d="M10.0527 2.43373C10.5438 1.94256 11.21 1.66663 11.9046 1.66663C12.5992 1.66663 13.2654 1.94256 13.7565 2.43373C14.0754 2.75257 14.3035 3.14515 14.4244 3.57139H17.6189C18.0134 3.57139 18.3332 3.89118 18.3332 4.28567C18.3332 4.68016 18.0134 4.99996 17.6189 4.99996H14.4244C14.3035 5.4262 14.0754 5.81878 13.7565 6.13762C13.2654 6.62879 12.5992 6.90472 11.9046 6.90472C11.21 6.90472 10.5438 6.62879 10.0527 6.13762C9.73381 5.81878 9.50567 5.4262 9.38483 4.99996H2.38079C1.9863 4.99996 1.6665 4.68016 1.6665 4.28567C1.6665 3.89118 1.9863 3.57139 2.38079 3.57139H9.38483C9.50567 3.14515 9.73381 2.75257 10.0527 2.43373ZM11.9046 3.0952C11.5889 3.0952 11.2861 3.22062 11.0628 3.44388C10.8395 3.66714 10.7141 3.96994 10.7141 4.28567C10.7141 4.60141 10.8395 4.90421 11.0628 5.12747C11.2861 5.35073 11.5889 5.47615 11.9046 5.47615C12.2203 5.47615 12.5231 5.35073 12.7464 5.12747C12.9697 4.90421 13.0951 4.60141 13.0951 4.28567C13.0951 3.96994 12.9697 3.66714 12.7464 3.44388C12.5231 3.22062 12.2203 3.0952 11.9046 3.0952ZM4.33837 8.14801C4.82953 7.65685 5.4957 7.38091 6.19031 7.38091C6.88493 7.38091 7.55109 7.65685 8.04226 8.14801C8.3611 8.46685 8.58924 8.85944 8.71008 9.28567H17.6189C18.0134 9.28567 18.3332 9.60547 18.3332 9.99996C18.3332 10.3944 18.0134 10.7142 17.6189 10.7142H8.71008C8.58924 11.1405 8.3611 11.5331 8.04226 11.8519C7.55109 12.3431 6.88493 12.619 6.19031 12.619C5.4957 12.619 4.82953 12.3431 4.33837 11.8519C4.01953 11.5331 3.79139 11.1405 3.67054 10.7142H2.38079C1.9863 10.7142 1.6665 10.3944 1.6665 9.99996C1.6665 9.60547 1.9863 9.28567 2.38079 9.28567H3.67054C3.79139 8.85944 4.01953 8.46685 4.33837 8.14801ZM6.19031 8.80948C5.87458 8.80948 5.57178 8.93491 5.34852 9.15817C5.12526 9.38142 4.99984 9.68423 4.99984 9.99996C4.99984 10.3157 5.12526 10.6185 5.34852 10.8418C5.57178 11.065 5.87458 11.1904 6.19031 11.1904C6.50605 11.1904 6.80885 11.065 7.03211 10.8418C7.25536 10.6185 7.38079 10.3157 7.38079 9.99996C7.38079 9.68423 7.25536 9.38142 7.03211 9.15817C6.80885 8.93491 6.50605 8.80948 6.19031 8.80948ZM12.9098 13.8623C13.401 13.3711 14.0671 13.0952 14.7617 13.0952C15.4564 13.0952 16.1225 13.3711 16.6137 13.8623C16.9325 14.1811 17.1607 14.5737 17.2815 15H17.6189C18.0134 15 18.3332 15.3198 18.3332 15.7142C18.3332 16.1087 18.0134 16.4285 17.6189 16.4285H17.2815C17.1607 16.8548 16.9325 17.2474 16.6137 17.5662C16.1225 18.0574 15.4564 18.3333 14.7617 18.3333C14.0671 18.3333 13.401 18.0574 12.9098 17.5662C12.591 17.2474 12.3628 16.8548 12.242 16.4285H2.38079C1.9863 16.4285 1.6665 16.1087 1.6665 15.7142C1.6665 15.3198 1.9863 15 2.38079 15H12.242C12.3628 14.5737 12.591 14.1811 12.9098 13.8623ZM14.7617 14.5238C14.446 14.5238 14.1432 14.6492 13.9199 14.8725C13.6967 15.0957 13.5713 15.3985 13.5713 15.7142C13.5713 16.03 13.6967 16.3328 13.9199 16.556C14.1432 16.7793 14.446 16.9047 14.7617 16.9047C15.0775 16.9047 15.3803 16.7793 15.6035 16.556C15.8268 16.3328 15.9522 16.03 15.9522 15.7142C15.9522 15.3985 15.8268 15.0957 15.6035 14.8725C15.3803 14.6492 15.0775 14.5238 14.7617 14.5238Z" fill="#7062AB"/>
</svg>
