<svg width="19" height="19" viewBox="0 0 19 19" fill="none" xmlns="http://www.w3.org/2000/svg">
<path d="M17.2627 7.94952H16.625V7.91666H9.50004V11.0833H13.9741C13.3214 12.9267 11.5675 14.25 9.50004 14.25C6.87685 14.25 4.75004 12.1232 4.75004 9.5C4.75004 6.87681 6.87685 4.75 9.50004 4.75C10.7109 4.75 11.8125 5.20679 12.6513 5.95293L14.8905 3.7137C13.4766 2.39597 11.5853 1.58333 9.50004 1.58333C5.12806 1.58333 1.58337 5.12802 1.58337 9.5C1.58337 13.872 5.12806 17.4167 9.50004 17.4167C13.872 17.4167 17.4167 13.872 17.4167 9.5C17.4167 8.96918 17.3621 8.45104 17.2627 7.94952Z" fill="#FFC107"/>
<path d="M2.49609 5.81518L5.09711 7.7227C5.80091 5.98025 7.50536 4.74999 9.49997 4.74999C10.7108 4.74999 11.8124 5.20679 12.6512 5.95293L14.8904 3.7137C13.4765 2.39597 11.5852 1.58333 9.49997 1.58333C6.45918 1.58333 3.82214 3.30006 2.49609 5.81518Z" fill="#FF3D00"/>
<path d="M9.50008 17.4167C11.545 17.4167 13.403 16.6341 14.8078 15.3615L12.3576 13.2881C11.5361 13.9129 10.5322 14.2508 9.50008 14.25C7.44096 14.25 5.69256 12.937 5.0339 11.1047L2.45227 13.0938C3.76248 15.6576 6.42327 17.4167 9.50008 17.4167Z" fill="#4CAF50"/>
<path d="M17.2627 7.94953H16.625V7.91667H9.5V11.0833H13.9741C13.6619 11.9607 13.0995 12.7273 12.3563 13.2885L12.3575 13.2877L14.8077 15.3611C14.6344 15.5187 17.4167 13.4583 17.4167 9.50001C17.4167 8.96919 17.362 8.45105 17.2627 7.94953Z" fill="#1976D2"/>
</svg>
