<svg width="21" height="21" viewBox="0 0 21 21" fill="none" xmlns="http://www.w3.org/2000/svg">
<mask id="mask0_241_1350" style="mask-type:luminance" maskUnits="userSpaceOnUse" x="1" y="3" width="19" height="17">
<path fill-rule="evenodd" clip-rule="evenodd" d="M1.97266 3.22754H19.0228V19.4686H1.97266V3.22754Z" fill="white"/>
</mask>
<g mask="url(#mask0_241_1350)">
<path fill-rule="evenodd" clip-rule="evenodd" d="M3.49128 10.8254C4.65891 14.4583 9.27196 17.3956 10.4979 18.1227C11.728 17.3882 16.3743 14.4183 17.5045 10.8288C18.2466 8.50851 17.5578 5.56945 14.8211 4.68748C13.4953 4.2619 11.9487 4.52091 10.881 5.34708C10.6578 5.51864 10.348 5.52198 10.1231 5.35208C8.99213 4.50176 7.51469 4.25274 6.168 4.68748C3.43548 5.56861 2.74923 8.50767 3.49128 10.8254ZM10.4989 19.4687C10.3956 19.4687 10.2932 19.4437 10.1999 19.3929C9.93924 19.2505 3.79877 15.8659 2.30218 11.207C2.30134 11.207 2.30134 11.2062 2.30134 11.2062C1.36191 8.27293 2.40795 4.58682 5.78508 3.49831C7.37079 2.98528 9.09891 3.21098 10.4964 4.09295C11.8506 3.2368 13.6495 3.00027 15.2036 3.49831C18.584 4.58848 19.6334 8.27376 18.6948 11.2062C17.2465 15.8117 11.0611 19.2471 10.7987 19.3912C10.7054 19.4429 10.6022 19.4687 10.4989 19.4687Z" fill="#7062AB"/>
</g>
<path fill-rule="evenodd" clip-rule="evenodd" d="M15.426 9.57792C15.1037 9.57792 14.8305 9.33057 14.8038 9.0041C14.7489 8.31951 14.2908 7.74153 13.6387 7.53082C13.3097 7.42422 13.1299 7.07193 13.2356 6.74463C13.3431 6.41649 13.692 6.23827 14.0218 6.34154C15.157 6.70882 15.9523 7.71405 16.0498 8.9025C16.0772 9.24646 15.8216 9.54794 15.4776 9.57542C15.4601 9.57709 15.4435 9.57792 15.426 9.57792Z" fill="#7062AB"/>
</svg>
