<svg width="18" height="18" viewBox="0 0 18 18" fill="none" xmlns="http://www.w3.org/2000/svg">
<path fill-rule="evenodd" clip-rule="evenodd" d="M11.6578 2.24414C12.1199 2.24414 12.5812 2.30931 13.0198 2.45649C15.7227 3.33522 16.6966 6.30091 15.883 8.89315C15.4217 10.2178 14.6675 11.4268 13.6796 12.4146C12.2656 13.784 10.7139 14.9996 9.04362 16.0467L8.86055 16.1573L8.67016 16.0394C6.994 14.9996 5.43353 13.784 4.00633 12.4073C3.02509 11.4195 2.27012 10.2178 1.80147 8.89315C0.974001 6.30091 1.94792 3.33522 4.68002 2.44112C4.89238 2.36789 5.11133 2.31663 5.33101 2.28807H5.41888C5.62465 2.25805 5.82895 2.24414 6.03399 2.24414H6.11454C6.57587 2.25805 7.02255 2.3386 7.45533 2.48578H7.49853C7.52782 2.4997 7.54979 2.51508 7.56444 2.52899C7.72627 2.58098 7.87931 2.63956 8.02577 2.72011L8.30403 2.8446C8.37127 2.88046 8.44674 2.93525 8.51196 2.98261C8.55329 3.01261 8.5905 3.03963 8.6189 3.05696C8.63086 3.06401 8.643 3.0711 8.65525 3.07824C8.71803 3.1149 8.78344 3.15307 8.83859 3.19535C9.65214 2.57366 10.64 2.23681 11.6578 2.24414ZM13.6056 7.51642C13.9058 7.50837 14.1621 7.26745 14.1841 6.95917V6.87203C14.2061 5.84611 13.5844 4.91686 12.639 4.55805C12.3388 4.4548 12.0093 4.61663 11.8994 4.92419C11.7969 5.23174 11.958 5.56858 12.2656 5.67769C12.7349 5.85344 13.0491 6.3155 13.0491 6.82736V6.85006C13.0352 7.01775 13.0857 7.17958 13.1882 7.30406C13.2907 7.42855 13.4445 7.50105 13.6056 7.51642Z" fill="#7062AB"/>
</svg>
