<svg width="20" height="21" viewBox="0 0 20 21" fill="none" xmlns="http://www.w3.org/2000/svg">
<path fill-rule="evenodd" clip-rule="evenodd" d="M6.50833 2.1665H13.4925C16.0667 2.1665 17.5 3.64984 17.5 6.1915V14.7998C17.5 17.3832 16.0667 18.8332 13.4925 18.8332H6.50833C3.975 18.8332 2.5 17.3832 2.5 14.7998V6.1915C2.5 3.64984 3.975 2.1665 6.50833 2.1665ZM6.73333 6.04984V6.0415H9.22417C9.58333 6.0415 9.875 6.33317 9.875 6.69067C9.875 7.05817 9.58333 7.34984 9.22417 7.34984H6.73333C6.37417 7.34984 6.08333 7.05817 6.08333 6.69984C6.08333 6.3415 6.37417 6.04984 6.73333 6.04984ZM6.73333 11.1165H13.2667C13.625 11.1165 13.9167 10.8248 13.9167 10.4665C13.9167 10.1082 13.625 9.81567 13.2667 9.81567H6.73333C6.37417 9.81567 6.08333 10.1082 6.08333 10.4665C6.08333 10.8248 6.37417 11.1165 6.73333 11.1165ZM6.73333 14.9248H13.2667C13.5992 14.8915 13.85 14.6073 13.85 14.2748C13.85 13.9332 13.5992 13.6498 13.2667 13.6165H6.73333C6.48333 13.5915 6.24167 13.7082 6.10833 13.9248C5.975 14.1332 5.975 14.4082 6.10833 14.6248C6.24167 14.8332 6.48333 14.9582 6.73333 14.9248Z" fill="#98A2B3"/>
</svg>
