<svg width="20" height="21" viewBox="0 0 20 21" fill="none" xmlns="http://www.w3.org/2000/svg">
<path fill-rule="evenodd" clip-rule="evenodd" d="M6.50833 2.16675H13.4925C16.0667 2.16675 17.5 3.65008 17.5 6.19175V14.8001C17.5 17.3834 16.0667 18.8334 13.4925 18.8334H6.50833C3.975 18.8334 2.5 17.3834 2.5 14.8001V6.19175C2.5 3.65008 3.975 2.16675 6.50833 2.16675ZM6.73333 6.05008V6.04175H9.22417C9.58333 6.04175 9.875 6.33342 9.875 6.69092C9.875 7.05841 9.58333 7.35008 9.22417 7.35008H6.73333C6.37417 7.35008 6.08333 7.05841 6.08333 6.70008C6.08333 6.34175 6.37417 6.05008 6.73333 6.05008ZM6.73333 11.1167H13.2667C13.625 11.1167 13.9167 10.8251 13.9167 10.4667C13.9167 10.1084 13.625 9.81591 13.2667 9.81591H6.73333C6.37417 9.81591 6.08333 10.1084 6.08333 10.4667C6.08333 10.8251 6.37417 11.1167 6.73333 11.1167ZM6.73333 14.9251H13.2667C13.5992 14.8917 13.85 14.6076 13.85 14.2751C13.85 13.9334 13.5992 13.6501 13.2667 13.6167H6.73333C6.48333 13.5917 6.24167 13.7084 6.10833 13.9251C5.975 14.1334 5.975 14.4084 6.10833 14.6251C6.24167 14.8334 6.48333 14.9584 6.73333 14.9251Z" fill="#7062AB"/>
</svg>
