<svg width="40" height="40" viewBox="0 0 40 40" fill="none" xmlns="http://www.w3.org/2000/svg">
<circle cx="20" cy="20" r="20" fill="#F2F3FB"/>
<path fill-rule="evenodd" clip-rule="evenodd" d="M19.9728 28.3683C16.7338 28.3683 13.9668 27.8783 13.9668 25.9163C13.9668 23.9543 16.7158 22.2463 19.9728 22.2463C23.2118 22.2463 25.9788 23.9383 25.9788 25.8993C25.9788 27.8603 23.2298 28.3683 19.9728 28.3683Z" stroke="#7062AB" stroke-width="1.5" stroke-linecap="round" stroke-linejoin="round"/>
<path fill-rule="evenodd" clip-rule="evenodd" d="M19.9731 19.4488C22.0991 19.4488 23.8231 17.7258 23.8231 15.5998C23.8231 13.4738 22.0991 11.7498 19.9731 11.7498C17.8471 11.7498 16.1231 13.4738 16.1231 15.5998C16.1171 17.7178 17.8271 19.4418 19.9461 19.4488H19.9731Z" stroke="#7062AB" stroke-width="1.5" stroke-linecap="round" stroke-linejoin="round"/>
<path d="M26.3623 18.3915C27.5993 18.0605 28.5113 16.9325 28.5113 15.5895C28.5113 14.1885 27.5183 13.0185 26.1963 12.7485" stroke="#7062AB" stroke-width="1.5" stroke-linecap="round" stroke-linejoin="round"/>
<path d="M26.9434 21.5444C28.6974 21.5444 30.1954 22.7334 30.1954 23.7954C30.1954 24.4204 29.6784 25.1014 28.8944 25.2854" stroke="#7062AB" stroke-width="1.5" stroke-linecap="round" stroke-linejoin="round"/>
<path d="M13.5836 18.3915C12.3456 18.0605 11.4336 16.9325 11.4336 15.5895C11.4336 14.1885 12.4276 13.0185 13.7486 12.7485" stroke="#7062AB" stroke-width="1.5" stroke-linecap="round" stroke-linejoin="round"/>
<path d="M13.002 21.5444C11.248 21.5444 9.75 22.7334 9.75 23.7954C9.75 24.4204 10.267 25.1014 11.052 25.2854" stroke="#7062AB" stroke-width="1.5" stroke-linecap="round" stroke-linejoin="round"/>
</svg>
