<svg width="15" height="15" viewBox="0 0 15 15" fill="none" xmlns="http://www.w3.org/2000/svg">
<path fill-rule="evenodd" clip-rule="evenodd" d="M2.78687 6.72223C2.78687 3.98587 5.07351 1.77417 7.83944 1.77417C10.6132 1.77417 12.8998 3.98587 12.8998 6.72223C12.8998 8.10112 12.3983 9.38127 11.5729 10.4663C10.6624 11.6632 9.54003 12.706 8.27674 13.5245C7.98761 13.7136 7.72667 13.7279 7.40935 13.5245C6.13885 12.706 5.01653 11.6632 4.11374 10.4663C3.28774 9.38127 2.78687 8.10112 2.78687 6.72223ZM6.1743 6.87638C6.1743 7.79306 6.92232 8.51403 7.83949 8.51403C8.75727 8.51403 9.51249 7.79306 9.51249 6.87638C9.51249 5.96683 8.75727 5.21076 7.83949 5.21076C6.92232 5.21076 6.1743 5.96683 6.1743 6.87638Z" fill="url(#paint0_linear_241_1348)"/>
<defs>
<linearGradient id="paint0_linear_241_1348" x1="12.8998" y1="13.6718" x2="0.601666" y2="10.6409" gradientUnits="userSpaceOnUse">
<stop stop-color="#7062AB"/>
<stop offset="1" stop-color="#7369F8"/>
</linearGradient>
</defs>
</svg>
