<svg width="20" height="20" viewBox="0 0 20 20" fill="none" xmlns="http://www.w3.org/2000/svg">
<path d="M5.8335 15C4.30939 15.3431 3.3335 15.8703 3.3335 16.4614C3.3335 17.4953 6.31826 18.3333 10.0002 18.3333C13.6821 18.3333 16.6668 17.4953 16.6668 16.4614C16.6668 15.8703 15.6909 15.3431 14.1668 15" stroke="#667185" stroke-width="1.5" stroke-linecap="round"/>
<path d="M12.0832 7.49984C12.0832 8.65042 11.1504 9.58317 9.99984 9.58317C8.84925 9.58317 7.9165 8.65042 7.9165 7.49984C7.9165 6.34925 8.84925 5.4165 9.99984 5.4165C11.1504 5.4165 12.0832 6.34925 12.0832 7.49984Z" stroke="#667185" stroke-width="1.5"/>
<path d="M11.0477 14.5778C10.7666 14.8485 10.3909 14.9998 10 14.9998C9.609 14.9998 9.23334 14.8485 8.95225 14.5778C6.37842 12.0838 2.92916 9.29775 4.61126 5.25295C5.52075 3.06594 7.70395 1.6665 10 1.6665C12.296 1.6665 14.4792 3.06595 15.3887 5.25295C17.0687 9.29267 13.6278 12.0924 11.0477 14.5778Z" stroke="#667185" stroke-width="1.5"/>
</svg>
