<svg width="32" height="33" viewBox="0 0 32 33" fill="none" xmlns="http://www.w3.org/2000/svg">
<circle cx="16" cy="16.4514" r="16" fill="#F2F3FB"/>
<path fill-rule="evenodd" clip-rule="evenodd" d="M16 9.65257C14.8202 9.65257 13.6668 9.99299 12.6857 10.6308C11.7047 11.2686 10.94 12.1751 10.4885 13.2357C10.0369 14.2963 9.91878 15.4633 10.1489 16.5893C10.3791 17.7152 10.9472 18.7494 11.7815 19.5612C11.7815 19.5611 11.7815 19.5612 11.7815 19.5612L15.2735 22.958C15.4664 23.1454 15.7278 23.2507 16.0005 23.2507C16.2731 23.2507 16.5345 23.1454 16.7274 22.958L20.2186 19.5612C21.0528 18.7495 21.621 17.7152 21.8512 16.5893C22.0813 15.4633 21.9632 14.2963 21.5116 13.2357C21.0601 12.1751 20.2954 11.2686 19.3144 10.6308C18.3333 9.99299 17.1799 9.65257 16 9.65257ZM12 9.63225C13.184 8.86251 14.576 8.45166 16 8.45166C17.4241 8.45166 18.8161 8.86251 20.0001 9.63225C21.1841 10.402 22.107 11.496 22.6519 12.7761C23.1969 14.0561 23.3395 15.4646 23.0617 16.8235C22.7839 18.1824 22.0982 19.4307 21.0913 20.4104L17.6 23.8074C17.1757 24.2198 16.6002 24.4517 16.0005 24.4517C15.4007 24.4517 14.8255 24.22 14.4012 23.8076L10.9088 20.4104C9.90191 19.4307 9.21615 18.1824 8.93837 16.8235C8.66059 15.4646 8.80319 14.0561 9.34815 12.7761C9.89312 11.496 10.816 10.402 12 9.63225ZM13.8181 13.3338C14.3968 12.7708 15.1817 12.4545 16 12.4545C16.8184 12.4545 17.6033 12.7708 18.182 13.3338C18.7607 13.8969 19.0858 14.6605 19.0858 15.4568C19.0858 16.253 18.7607 17.0167 18.182 17.5797C17.6033 18.1427 16.8184 18.459 16 18.459C15.1817 18.459 14.3968 18.1427 13.8181 17.5797C13.2394 17.0167 12.9143 16.253 12.9143 15.4568C12.9143 14.6605 13.2394 13.8969 13.8181 13.3338ZM16 13.6554C15.509 13.6554 15.0381 13.8452 14.6909 14.183C14.3437 14.5208 14.1486 14.979 14.1486 15.4568C14.1486 15.9345 14.3437 16.3927 14.6909 16.7305C15.0381 17.0683 15.509 17.2581 16 17.2581C16.4911 17.2581 16.962 17.0683 17.3092 16.7305C17.6564 16.3927 17.8515 15.9345 17.8515 15.4568C17.8515 14.979 17.6564 14.5208 17.3092 14.183C16.962 13.8452 16.4911 13.6554 16 13.6554Z" fill="#7062AB"/>
</svg>
