<svg width="154" height="60" viewBox="0 0 154 60" fill="none" xmlns="http://www.w3.org/2000/svg">
<g clip-path="url(#clip0_231_565)">
<path fill-rule="evenodd" clip-rule="evenodd" d="M25.4905 27.6203C25.5069 26.6374 25.2304 25.6718 24.6963 24.8465C24.1621 24.0212 23.3944 23.3736 22.491 22.986C21.5875 22.5985 20.5892 22.4885 19.6231 22.6702C18.6569 22.8519 17.7667 23.317 17.0658 24.0063C16.3648 24.6955 15.8849 25.5778 15.687 26.5407C15.4891 27.5037 15.5822 28.5037 15.9545 29.4135C16.3269 30.3234 16.9615 31.1018 17.7777 31.6498C18.5939 32.1978 19.5546 32.4904 20.5377 32.4906C21.1832 32.4978 21.8238 32.3774 22.4226 32.1363C23.0214 31.8951 23.5666 31.5379 24.0269 31.0853C24.4872 30.6327 24.8534 30.0936 25.1046 29.4989C25.3558 28.9043 25.487 28.2658 25.4905 27.6203Z" fill="#EF3852"/>
<path fill-rule="evenodd" clip-rule="evenodd" d="M1.52418 0.0936003C0.07135 6.10854 16.2836 35.864 20.2844 42.1762C21.1154 43.5079 24.2797 48.2901 26.558 50.8051C26.624 50.1447 26.6956 49.4513 26.7451 48.6423C27.7191 30.4049 31.3787 5.57473 55.3174 7.33023C66.6979 8.13919 83.2844 15.2548 94.9401 18.6117C114.465 24.2524 129.395 24.9788 149.036 18.9254C151.342 18.2155 151.54 18.0173 153.989 17.7587C152.211 19.5747 152.079 19.5967 149.85 20.8404C130.859 31.5055 108.395 29.7335 88.0831 24.5661C78.8654 22.2383 59.7529 15.5519 50.8709 17.0103C39.7985 18.8648 37.113 33.0629 35.6162 42.3247C35.0659 45.6266 34.7577 50.8711 34.1193 53.6997C33.0517 58.3774 29.3866 61.5417 24.907 58.8672C15.0784 53.0339 1.44162 17.2689 0.0878508 5.83338C0.0218131 5.31608 -0.462466 -0.814419 1.51316 0.0936003H1.52418ZM28.3135 52.2854C28.3877 52.3225 28.4678 52.3467 28.5501 52.357C28.4738 52.3254 28.3945 52.3014 28.3135 52.2854Z" fill="#7062AB"/>
<path d="M71.0676 56.3632H65.658L62.3561 48.1635L60.1934 42.2366L58.1462 48.202L54.9654 56.3632H49.3357L42.3852 35.6549H39.7877V30.7516H51.1683V35.6549H48.4937L52.4835 48.6423L58.4104 31.8137H62.07L68.1234 48.6423L71.8876 35.6549H69.18V30.7516H80.3019V35.6549H77.9631L71.0676 56.3632Z" fill="#3E3838"/>
<path d="M100.449 51.9332V56.3632H93.5315L93.2013 54.3105C91.1211 56.3632 88.8868 56.8365 86.5975 56.8365C81.4741 56.8365 78.0016 53.4686 78.0016 47.5417C78.0016 42.6384 81.3035 38.0653 86.7791 37.7736C89.3051 37.7736 91.5008 38.0653 93.2178 40.0794L93.4379 38.2138H100.317V42.7484H98.011V51.9332H100.449ZM83.07 47.5307C83.07 50.3152 84.9741 52.3624 87.9733 52.3624C91.1541 52.3624 93.1298 50.2382 93.1298 47.4976C93.1683 44.6415 91.4788 42.6659 88.1769 42.6659C85.1557 42.6769 83.07 44.8011 83.07 47.5417V47.5307Z" fill="#3E3838"/>
<path d="M103.19 42.5668H100.521V38.2138H110.839V42.5668H108.863L112.594 51.2728L116.056 42.5668H114.24V38.2138H124.591V42.5668H121.84L115.373 56.5778H109.595L103.19 42.5668Z" fill="#3E3838"/>
<path d="M141.679 54.0189C139.703 55.956 136.445 56.875 133.776 56.875C126.715 56.875 123.749 52.555 123.749 47.1399C123.749 41.4717 127.557 37.7021 133.517 37.7021C139.477 37.7021 143.362 40.8829 142.322 49.0826H128.944C129.203 50.9096 130.848 52.2634 133.897 52.2634C135.619 52.246 137.293 51.6962 138.69 50.6895L141.679 54.0189ZM137.617 45.2138C137.689 42.9796 135.823 42.066 133.556 42.066C131.289 42.066 129.346 43.0896 128.911 45.2138H137.617Z" fill="#3E3838"/>
</g>
<defs>
<clipPath id="clip0_231_565">
<rect width="154" height="59.8467" fill="white"/>
</clipPath>
</defs>
</svg>
