<svg width="17" height="17" viewBox="0 0 17 17" fill="none" xmlns="http://www.w3.org/2000/svg">
<path fill-rule="evenodd" clip-rule="evenodd" d="M8.08618 3.28543C7.10294 3.28543 6.14177 3.56911 5.32423 4.1006C4.50669 4.63208 3.86949 5.38751 3.49321 6.27134C3.11692 7.15518 3.01846 8.12772 3.21026 9.06601C3.40206 10.0043 3.8755 10.8661 4.57071 11.5426C4.57069 11.5426 4.57073 11.5426 4.57071 11.5426L7.48074 14.3733C7.64146 14.5295 7.85935 14.6172 8.08652 14.6172C8.3137 14.6172 8.53159 14.5295 8.69231 14.3733L11.6016 11.5426C12.2968 10.8662 12.7703 10.0043 12.9621 9.06601C13.1539 8.12772 13.0554 7.15518 12.6792 6.27134C12.3029 5.38751 11.6657 4.63208 10.8481 4.1006C10.0306 3.56911 9.06943 3.28543 8.08618 3.28543ZM4.75279 3.26849C5.73948 2.62704 6.89951 2.28467 8.08618 2.28467C9.27286 2.28467 10.4329 2.62704 11.4196 3.26849C12.4063 3.90994 13.1753 4.82166 13.6294 5.88835C14.0836 6.95505 14.2024 8.12882 13.9709 9.26123C13.7394 10.3936 13.168 11.4338 12.3289 12.2503L9.41944 15.0811C9.06585 15.4248 8.58632 15.618 8.08652 15.618C7.58673 15.618 7.10738 15.425 6.7538 15.0813L3.84349 12.2503C3.0044 11.4339 2.43294 10.3936 2.20145 9.26123C1.96996 8.12882 2.0888 6.95505 2.54294 5.88835C2.99707 4.82166 3.76611 3.90994 4.75279 3.26849ZM6.26791 6.35314C6.75014 5.88394 7.4042 5.62034 8.08618 5.62034C8.76817 5.62034 9.42222 5.88394 9.90446 6.35314C10.3867 6.82233 10.6576 7.4587 10.6576 8.12225C10.6576 8.78579 10.3867 9.42216 9.90446 9.89136C9.42222 10.3606 8.76817 10.6242 8.08618 10.6242C7.4042 10.6242 6.75014 10.3606 6.26791 9.89136C5.78567 9.42216 5.51475 8.78579 5.51475 8.12225C5.51475 7.4587 5.78567 6.82233 6.26791 6.35314ZM8.08618 6.62111C7.67699 6.62111 7.28456 6.77926 6.99522 7.06078C6.70588 7.3423 6.54333 7.72412 6.54333 8.12225C6.54333 8.52038 6.70588 8.9022 6.99522 9.18372C7.28456 9.46524 7.67699 9.62339 8.08618 9.62339C8.49537 9.62339 8.8878 9.46524 9.17715 9.18372C9.46649 8.9022 9.62904 8.52038 9.62904 8.12225C9.62904 7.72412 9.46649 7.3423 9.17715 7.06078C8.8878 6.77926 8.49537 6.62111 8.08618 6.62111Z" fill="white"/>
</svg>
