<svg width="32" height="33" viewBox="0 0 32 33" fill="none" xmlns="http://www.w3.org/2000/svg">
<circle cx="16" cy="16.9514" r="16" fill="#F2F3FB"/>
<path d="M11.1467 10.7292C11.2 11.5203 11.3333 12.2936 11.5467 13.0314L10.48 14.0981C10.1156 13.0314 9.88444 11.9025 9.80444 10.7292H11.1467ZM19.9111 21.4136C20.6667 21.627 21.44 21.7603 22.2222 21.8136V23.1381C21.0489 23.0581 19.92 22.827 18.8444 22.4714L19.9111 21.4136ZM12 8.95142H8.88889C8.4 8.95142 8 9.35142 8 9.8403C8 18.187 14.7644 24.9514 23.1111 24.9514C23.6 24.9514 24 24.5514 24 24.0625V20.9603C24 20.4714 23.6 20.0714 23.1111 20.0714C22.0089 20.0714 20.9333 19.8936 19.9378 19.5647C19.8495 19.5327 19.7561 19.5177 19.6622 19.5203C19.4311 19.5203 19.2089 19.6092 19.0311 19.7781L17.0756 21.7336C14.5559 20.4451 12.5063 18.3955 11.2178 15.8759L13.1733 13.9203C13.4222 13.6714 13.4933 13.3247 13.3956 13.0136C13.0584 11.9897 12.8873 10.9183 12.8889 9.8403C12.8889 9.35142 12.4889 8.95142 12 8.95142Z" fill="#7062AB"/>
</svg>
