<svg width="13" height="14" viewBox="0 0 13 14" fill="none" xmlns="http://www.w3.org/2000/svg">
<path d="M4.08618 4.87667L4.393 5.20584L4.63943 4.97616L4.48847 4.67501L4.08618 4.87667ZM2.28158 1.27667L2.68386 1.07501C2.62269 0.952966 2.50941 0.865294 2.37593 0.836668C2.24245 0.808042 2.10319 0.841564 1.99735 0.927796L2.28158 1.27667ZM8.886 9.67673L9.08766 9.27443L8.78652 9.12347L8.55684 9.36989L8.886 9.67673ZM12.486 11.4813L12.8349 11.7656C12.9211 11.6597 12.9547 11.5205 12.926 11.387C12.8974 11.2535 12.8097 11.1402 12.6877 11.079L12.486 11.4813ZM0.0978026 4.70829C0.272799 5.57546 0.564381 6.43121 1.15809 7.46603L1.93873 7.01819C1.39436 6.06933 1.13639 5.30514 0.980049 4.5304L0.0978026 4.70829ZM1.85524 7.57127L4.393 5.20584L3.77936 4.54749L1.24159 6.91295L1.85524 7.57127ZM4.48847 4.67501L2.68386 1.07501L1.87929 1.47833L3.68389 5.07833L4.48847 4.67501ZM1.99735 0.927796C1.09005 1.66698 -0.271859 2.87328 0.0978026 4.70829L0.980049 4.5304C0.728157 3.28001 1.61529 2.39994 2.56581 1.62554L1.99735 0.927796ZM1.15809 7.46603C1.75565 8.50757 2.52125 9.49367 3.39567 10.3674L4.03206 9.73103C3.21007 8.90963 2.49406 7.98611 1.93873 7.01819L1.15809 7.46603ZM9.23226 12.7829C8.45754 12.6265 7.69338 12.3686 6.74454 11.8242L6.29664 12.6048C7.33146 13.1985 8.18706 13.4901 9.05424 13.6651L9.23226 12.7829ZM6.84978 12.5213L9.21522 9.98357L8.55684 9.36989L6.1914 11.9077L6.84978 12.5213ZM8.68434 10.079L12.2843 11.8836L12.6877 11.079L9.08766 9.27443L8.68434 10.079ZM12.1372 11.1971C11.3627 12.1476 10.4827 13.0347 9.23226 12.7829L9.05424 13.6651C10.8892 14.0348 12.0957 12.6729 12.8349 11.7656L12.1372 11.1971ZM6.74454 11.8242C5.77662 11.2689 4.85348 10.553 4.03206 9.73103L3.39567 10.3674C4.26942 11.2418 5.25507 12.0072 6.29664 12.6048L6.74454 11.8242Z" fill="white"/>
</svg>
