<svg width="15" height="15" viewBox="0 0 15 15" fill="none" xmlns="http://www.w3.org/2000/svg">
<path d="M6.2028 2.68401C6.44805 1.93769 7.51587 1.93768 7.76112 2.68401L8.55376 5.09617C8.66344 5.42994 8.978 5.65592 9.33292 5.65592H11.898C12.6916 5.65592 13.0216 6.6601 12.3795 7.12135L10.3043 8.61215C10.0172 8.81843 9.89706 9.18407 10.0067 9.51784L10.7994 11.93C11.0446 12.6763 10.1807 13.2969 9.53868 12.8357L7.46351 11.3449C7.17637 11.1386 6.78755 11.1386 6.50041 11.3449L4.42524 12.8357C3.78318 13.2969 2.91929 12.6763 3.16453 11.93L3.95718 9.51784C4.06686 9.18407 3.94671 8.81843 3.65957 8.61215L1.5844 7.12136C0.942335 6.6601 1.27231 5.65592 2.06594 5.65592H4.631C4.98592 5.65592 5.30048 5.42994 5.41015 5.09617L6.2028 2.68401Z" fill="#F3A218"/>
</svg>
