<svg width="137" height="99" viewBox="0 0 137 99" fill="none" xmlns="http://www.w3.org/2000/svg">
<path fill-rule="evenodd" clip-rule="evenodd" d="M48.9167 58.0003C48.9167 48.0132 57.0129 39.917 67.0001 39.917C76.9872 39.917 85.0834 48.0132 85.0834 58.0003C85.0834 67.9875 76.9872 76.0837 67.0001 76.0837C57.0129 76.0837 48.9167 67.9875 48.9167 58.0003ZM67.0001 43.417C58.9459 43.417 52.4167 49.9462 52.4167 58.0003C52.4167 66.0545 58.9459 72.5837 67.0001 72.5837C75.0542 72.5837 81.5834 66.0545 81.5834 58.0003C81.5834 49.9462 75.0542 43.417 67.0001 43.417Z" fill="#0F973D"/>
<path fill-rule="evenodd" clip-rule="evenodd" d="M67 53.917C67.9665 53.917 68.75 54.7005 68.75 55.667V60.3337C68.75 61.3002 67.9665 62.0837 67 62.0837C66.0335 62.0837 65.25 61.3002 65.25 60.3337V55.667C65.25 54.7005 66.0335 53.917 67 53.917Z" fill="#0F973D"/>
<path fill-rule="evenodd" clip-rule="evenodd" d="M67.0001 29.417C62.8119 29.417 59.4167 32.8122 59.4167 37.0003V44.0003C59.4167 44.9668 58.6332 45.7503 57.6667 45.7503C56.7002 45.7503 55.9167 44.9668 55.9167 44.0003V37.0003C55.9167 30.8792 60.8789 25.917 67.0001 25.917C73.1212 25.917 78.0834 30.8792 78.0834 37.0003V38.167C78.0834 39.1335 77.2999 39.917 76.3334 39.917C75.3669 39.917 74.5834 39.1335 74.5834 38.167V37.0003C74.5834 32.8122 71.1882 29.417 67.0001 29.417Z" fill="#0F973D"/>
<circle cx="116.5" cy="31.5" r="5.5" fill="#0F973D"/>
<circle cx="23" cy="70" r="3" fill="#0F973D"/>
<circle cx="99" cy="89" r="2" fill="#0F973D"/>
<circle cx="93" cy="2" r="2" fill="#0F973D"/>
<circle cx="38" cy="13" r="2" fill="#0F973D"/>
<circle cx="1" cy="1" r="1" transform="matrix(1 0 0 -1 135 76)" fill="#0F973D"/>
<circle cx="1" cy="1" r="1" transform="matrix(1 0 0 -1 39 99)" fill="#0F973D"/>
<circle cx="1" cy="1" r="1" transform="matrix(1 0 0 -1 0 41)" fill="#0F973D"/>
</svg>
