<svg width="137" height="99" viewBox="0 0 137 99" fill="none" xmlns="http://www.w3.org/2000/svg">
<path fill-rule="evenodd" clip-rule="evenodd" d="M67 73.75C54.4355 73.75 44.25 63.5645 44.25 51C44.25 38.4355 54.4355 28.25 67 28.25C79.5645 28.25 89.75 38.4355 89.75 51C89.75 63.5645 79.5645 73.75 67 73.75ZM47.75 51C47.75 61.6315 56.3685 70.25 67 70.25C77.6315 70.25 86.25 61.6315 86.25 51C86.25 40.3685 77.6315 31.75 67 31.75C56.3685 31.75 47.75 40.3685 47.75 51Z" fill="#0F973D"/>
<path fill-rule="evenodd" clip-rule="evenodd" d="M75.8209 45.0961C76.5043 45.7795 76.5043 46.8875 75.8209 47.5709L66.4876 56.9043C65.8042 57.5877 64.6961 57.5877 64.0127 56.9043L59.3461 52.2376C58.6626 51.5542 58.6626 50.4461 59.3461 49.7627C60.0295 49.0793 61.1375 49.0793 61.8209 49.7627L65.2502 53.192L73.3461 45.0961C74.0295 44.4126 75.1375 44.4126 75.8209 45.0961Z" fill="#0F973D"/>
<circle cx="116.5" cy="31.5" r="5.5" fill="#0F973D"/>
<circle cx="23" cy="70" r="3" fill="#0F973D"/>
<circle cx="99" cy="89" r="2" fill="#0F973D"/>
<circle cx="93" cy="2" r="2" fill="#0F973D"/>
<circle cx="38" cy="13" r="2" fill="#0F973D"/>
<circle cx="1" cy="1" r="1" transform="matrix(1 0 0 -1 135 76)" fill="#0F973D"/>
<circle cx="1" cy="1" r="1" transform="matrix(1 0 0 -1 39 99)" fill="#0F973D"/>
<circle cx="1" cy="1" r="1" transform="matrix(1 0 0 -1 0 41)" fill="#0F973D"/>
</svg>
