<svg width="40" height="40" viewBox="0 0 40 40" fill="none" xmlns="http://www.w3.org/2000/svg">
<circle cx="20" cy="20" r="20" fill="#F2F3FB"/>
<path d="M20.0003 26.6665H11.667C11.667 23.4448 14.6518 20.8332 18.3337 20.8332C19.2177 20.8332 20.0617 20.9838 20.8337 21.2572M21.667 14.9998C21.667 16.8408 20.1746 18.3332 18.3337 18.3332C16.4927 18.3332 15.0003 16.8408 15.0003 14.9998C15.0003 13.1589 16.4927 11.6665 18.3337 11.6665C20.1746 11.6665 21.667 13.1589 21.667 14.9998Z" stroke="#7062AB" stroke-width="1.25"/>
<path d="M25.0003 21.6665L25.5402 21.3516C25.4282 21.1596 25.2227 21.0415 25.0003 21.0415C24.778 21.0415 24.5725 21.1596 24.4605 21.3516L25.0003 21.6665ZM26.167 23.6665L25.6271 23.9814L25.7595 24.2083L26.0142 24.2725L26.167 23.6665ZM28.3337 24.2129L28.7923 24.6375C28.9421 24.4757 28.9956 24.2467 28.9328 24.0352C28.8701 23.8237 28.7004 23.6608 28.4865 23.6069L28.3337 24.2129ZM26.8337 25.8332L26.375 25.4086L26.152 25.6495L26.2237 25.9698L26.8337 25.8332ZM27.3937 28.3332L27.1528 28.9098C27.3684 28.9999 27.6162 28.9623 27.7953 28.8121C27.9744 28.662 28.0547 28.4245 28.0037 28.1965L27.3937 28.3332ZM25.0003 27.3332L25.2412 26.7565L25.0003 26.6558L24.7594 26.7565L25.0003 27.3332ZM22.6069 28.3332L21.997 28.1965C21.9459 28.4245 22.0262 28.662 22.2053 28.8121C22.3844 28.9623 22.6322 28.9999 22.8478 28.9098L22.6069 28.3332ZM23.167 25.8332L23.7769 25.9698L23.8487 25.6495L23.6257 25.4086L23.167 25.8332ZM21.667 24.2129L21.5142 23.6069C21.3002 23.6608 21.1306 23.8237 21.0678 24.0352C21.0051 24.2467 21.0585 24.4757 21.2083 24.6375L21.667 24.2129ZM23.8337 23.6665L23.9865 24.2725L24.2412 24.2083L24.3735 23.9814L23.8337 23.6665ZM24.4605 21.9814L25.6271 23.9814L26.7068 23.3516L25.5402 21.3516L24.4605 21.9814ZM26.0142 24.2725L28.1808 24.819L28.4865 23.6069L26.3198 23.0605L26.0142 24.2725ZM27.875 23.7883L26.375 25.4086L27.2923 26.2578L28.7923 24.6375L27.875 23.7883ZM26.2237 25.9698L26.7839 28.4698L28.0037 28.1965L27.4436 25.6965L26.2237 25.9698ZM27.6347 27.7565L25.2412 26.7565L24.7594 27.9098L27.1528 28.9098L27.6347 27.7565ZM24.7594 26.7565L22.3659 27.7565L22.8478 28.9098L25.2412 27.9098L24.7594 26.7565ZM23.2167 28.4698L23.7769 25.9698L22.5571 25.6965L21.997 28.1965L23.2167 28.4698ZM23.6257 25.4086L22.1257 23.7883L21.2083 24.6375L22.7083 26.2578L23.6257 25.4086ZM21.8198 24.819L23.9865 24.2725L23.6808 23.0605L21.5142 23.6069L21.8198 24.819ZM24.3735 23.9814L25.5402 21.9814L24.4605 21.3516L23.2938 23.3516L24.3735 23.9814Z" fill="#7062AB"/>
</svg>
