<svg width="138" height="99" viewBox="0 0 138 99" fill="none" xmlns="http://www.w3.org/2000/svg">
<path fill-rule="evenodd" clip-rule="evenodd" d="M81.5001 35.833L53.5001 35.833C50.2784 35.833 47.6667 38.4447 47.6667 41.6663L47.6667 60.333C47.6667 63.5547 50.2784 66.1663 53.5001 66.1663H81.5001C84.7217 66.1663 87.3334 63.5547 87.3334 60.333V41.6663C87.3334 38.4447 84.7217 35.833 81.5001 35.833ZM53.5001 32.333C48.3454 32.333 44.1667 36.5117 44.1667 41.6663L44.1667 60.333C44.1667 65.4877 48.3454 69.6663 53.5001 69.6663H81.5001C86.6547 69.6663 90.8334 65.4877 90.8334 60.333V41.6663C90.8334 36.5117 86.6547 32.333 81.5001 32.333L53.5001 32.333Z" fill="#7062AB"/>
<path fill-rule="evenodd" clip-rule="evenodd" d="M59.2626 45.0956C59.946 44.4122 61.054 44.4122 61.7374 45.0956L67.5 50.8581L73.2626 45.0956C73.946 44.4122 75.054 44.4122 75.7374 45.0956C76.4209 45.779 76.4209 46.887 75.7374 47.5704L68.7374 54.5704C68.054 55.2539 66.946 55.2539 66.2626 54.5704L59.2626 47.5704C58.5791 46.887 58.5791 45.779 59.2626 45.0956Z" fill="#7062AB"/>
<circle cx="117" cy="31.5" r="5.5" fill="#7062AB"/>
<circle cx="23.5" cy="70" r="3" fill="#7062AB"/>
<circle cx="99.5" cy="89" r="2" fill="#7062AB"/>
<circle cx="93.5" cy="2" r="2" fill="#7062AB"/>
<circle cx="38.5" cy="13" r="2" fill="#7062AB"/>
<circle cx="1" cy="1" r="1" transform="matrix(1 0 0 -1 135.5 76)" fill="#7062AB"/>
<circle cx="1" cy="1" r="1" transform="matrix(1 0 0 -1 39.5 99)" fill="#7062AB"/>
<circle cx="1" cy="1" r="1" transform="matrix(1 0 0 -1 0.5 41)" fill="#7062AB"/>
</svg>
