<svg width="20" height="21" viewBox="0 0 20 21" fill="none" xmlns="http://www.w3.org/2000/svg">
<path fill-rule="evenodd" clip-rule="evenodd" d="M2.5 5.91667C2.5 3.72899 2.52342 3 5.41667 3C8.30991 3 8.33333 3.72899 8.33333 5.91667C8.33333 8.10434 8.34256 8.83333 5.41667 8.83333C2.49077 8.83333 2.5 8.10434 2.5 5.91667Z" stroke="#7062AB" stroke-width="1.5" stroke-linecap="round" stroke-linejoin="round"/>
<path fill-rule="evenodd" clip-rule="evenodd" d="M11.6667 5.91667C11.6667 3.72899 11.6902 3 14.5834 3C17.4767 3 17.5001 3.72899 17.5001 5.91667C17.5001 8.10434 17.5093 8.83333 14.5834 8.83333C11.6575 8.83333 11.6667 8.10434 11.6667 5.91667Z" stroke="#7062AB" stroke-width="1.5" stroke-linecap="round" stroke-linejoin="round"/>
<path fill-rule="evenodd" clip-rule="evenodd" d="M2.5 15.0832C2.5 12.8955 2.52342 12.1665 5.41667 12.1665C8.30991 12.1665 8.33333 12.8955 8.33333 15.0832C8.33333 17.2708 8.34256 17.9998 5.41667 17.9998C2.49077 17.9998 2.5 17.2708 2.5 15.0832Z" stroke="#7062AB" stroke-width="1.5" stroke-linecap="round" stroke-linejoin="round"/>
<path fill-rule="evenodd" clip-rule="evenodd" d="M11.6667 15.0832C11.6667 12.8955 11.6902 12.1665 14.5834 12.1665C17.4767 12.1665 17.5001 12.8955 17.5001 15.0832C17.5001 17.2708 17.5093 17.9998 14.5834 17.9998C11.6575 17.9998 11.6667 17.2708 11.6667 15.0832Z" stroke="#7062AB" stroke-width="1.5" stroke-linecap="round" stroke-linejoin="round"/>
</svg>
