<svg width="137" height="99" viewBox="0 0 137 99" fill="none" xmlns="http://www.w3.org/2000/svg">
<path fill-rule="evenodd" clip-rule="evenodd" d="M64.3458 70.8413C52.871 70.8413 43.5688 61.5392 43.5688 50.0644C43.5688 38.5896 52.871 29.2875 64.3458 29.2875C75.8206 29.2875 85.1227 38.5896 85.1227 50.0644C85.1227 61.5392 75.8206 70.8413 64.3458 70.8413ZM46.7653 50.0644C46.7653 59.7738 54.6363 67.6449 64.3458 67.6449C74.0552 67.6449 81.9262 59.7738 81.9262 50.0644C81.9262 40.355 74.0552 32.4839 64.3458 32.4839C54.6363 32.4839 46.7653 40.355 46.7653 50.0644Z" fill="#F3A218"/>
<path fill-rule="evenodd" clip-rule="evenodd" d="M64.3458 46.335C65.2285 46.335 65.944 47.0505 65.944 47.9332V58.588C65.944 59.4707 65.2285 60.1862 64.3458 60.1862C63.4631 60.1862 62.7476 59.4707 62.7476 58.588V47.9332C62.7476 47.0505 63.4631 46.335 64.3458 46.335Z" fill="#F3A218"/>
<path d="M65.944 41.0079C65.944 41.8906 65.2285 42.6061 64.3458 42.6061C63.4631 42.6061 62.7476 41.8906 62.7476 41.0079C62.7476 40.1252 63.4631 39.4097 64.3458 39.4097C65.2285 39.4097 65.944 40.1252 65.944 41.0079Z" fill="#F3A218"/>
<circle cx="109.553" cy="32.2554" r="5.02299" fill="#F3A218"/>
<circle cx="24.1622" cy="67.4166" r="2.73981" fill="#F3A218"/>
<circle cx="93.5707" cy="84.7689" r="1.82654" fill="#F3A218"/>
<circle cx="88.0912" cy="5.31434" r="1.82654" fill="#F3A218"/>
<circle cx="37.8607" cy="15.3602" r="1.82654" fill="#F3A218"/>
<circle cx="0.913698" cy="0.913698" r="0.913698" transform="matrix(1 0 0 -1 126.449 72.8965)" fill="#F3A218"/>
<circle cx="0.913698" cy="0.913698" r="0.913698" transform="matrix(1 0 0 -1 38.7744 93.9014)" fill="#F3A218"/>
<circle cx="0.913698" cy="0.913698" r="0.913698" transform="matrix(1 0 0 -1 3.15723 40.9321)" fill="#F3A218"/>
</svg>
