<svg width="15" height="16" viewBox="0 0 15 16" fill="none" xmlns="http://www.w3.org/2000/svg">
<path fill-rule="evenodd" clip-rule="evenodd" d="M5.46481 2.16162C5.71127 2.16162 5.91106 2.36141 5.91106 2.60787V3.35162H9.77856V2.60787C9.77856 2.36141 9.97836 2.16162 10.2248 2.16162C10.4713 2.16162 10.6711 2.36141 10.6711 2.60787V3.35162H11.4148C12.3185 3.35162 13.0511 4.0842 13.0511 4.98787V12.1279C13.0511 13.0315 12.3185 13.7641 11.4148 13.7641H4.27481C3.37114 13.7641 2.63857 13.0315 2.63857 12.1279V4.98787C2.63857 4.0842 3.37114 3.35162 4.27481 3.35162H5.01856V2.60787C5.01856 2.36141 5.21836 2.16162 5.46481 2.16162ZM5.01856 4.24412H4.27481C3.86405 4.24412 3.53106 4.57711 3.53106 4.98787V6.92162H12.1586V4.98787C12.1586 4.57711 11.8256 4.24412 11.4148 4.24412H10.6711V4.98787C10.6711 5.23433 10.4713 5.43412 10.2248 5.43412C9.97836 5.43412 9.77856 5.23433 9.77856 4.98787V4.24412H5.91106V4.98787C5.91106 5.23433 5.71127 5.43412 5.46481 5.43412C5.21836 5.43412 5.01856 5.23433 5.01856 4.98787V4.24412ZM12.1586 7.81412H3.53106V12.1279C3.53106 12.5386 3.86405 12.8716 4.27481 12.8716H11.4148C11.8256 12.8716 12.1586 12.5386 12.1586 12.1279V7.81412ZM7.84481 8.70662C8.09127 8.70662 8.29106 8.90641 8.29106 9.15287V9.89662H9.03481C9.28127 9.89662 9.48106 10.0964 9.48106 10.3429C9.48106 10.5893 9.28127 10.7891 9.03481 10.7891H8.29106V11.5329C8.29106 11.7793 8.09127 11.9791 7.84481 11.9791C7.59836 11.9791 7.39856 11.7793 7.39856 11.5329V10.7891H6.65481C6.40836 10.7891 6.20856 10.5893 6.20856 10.3429C6.20856 10.0964 6.40836 9.89662 6.65481 9.89662H7.39856V9.15287C7.39856 8.90641 7.59836 8.70662 7.84481 8.70662Z" fill="url(#paint0_linear_1014_3864)"/>
<defs>
<linearGradient id="paint0_linear_1014_3864" x1="13.0511" y1="13.7641" x2="0.47128" y2="10.4908" gradientUnits="userSpaceOnUse">
<stop stop-color="#7062AB"/>
<stop offset="1" stop-color="#7369F8"/>
</linearGradient>
</defs>
</svg>
