<svg width="24" height="24" viewBox="0 0 24 24" fill="none" xmlns="http://www.w3.org/2000/svg">
<path d="M3.88244 4.19321C4.01265 4.06685 4.18772 3.99738 4.36914 4.00008C4.55056 4.00277 4.72348 4.07741 4.84988 4.20759C4.98808 4.35171 5.06391 4.54449 5.06095 4.74415C5.05799 4.9438 4.97648 5.13425 4.83407 5.27421C2.97519 7.15499 1.93418 9.6937 1.93751 12.3381C1.93751 15.1987 3.13063 17.7805 5.04825 19.6118C5.1223 19.6802 5.18197 19.7627 5.22379 19.8545C5.26561 19.9462 5.28873 20.0453 5.29181 20.1461C5.29488 20.2469 5.27786 20.3473 5.24172 20.4414C5.20558 20.5355 5.15105 20.6215 5.08132 20.6943C4.95766 20.822 4.78905 20.8965 4.61134 20.9018C4.43363 20.9072 4.26084 20.8431 4.12969 20.723C2.98239 19.6487 2.06816 18.35 1.44377 16.9076C0.819374 15.4652 0.49814 13.9098 0.500008 12.3381C0.500008 9.15546 1.79376 6.27471 3.88244 4.19321ZM19.1659 5.27421C19.0237 5.13405 18.9425 4.9435 18.9398 4.74385C18.9371 4.5442 19.0132 4.35153 19.1516 4.20759C19.2779 4.07785 19.4505 4.00349 19.6316 4.00079C19.8127 3.9981 19.9874 4.06729 20.1176 4.19321C21.1912 5.2603 22.0428 6.52943 22.6233 7.92737C23.2039 9.32531 23.5018 10.8244 23.5 12.3381C23.5 15.6443 22.1056 18.6257 19.8703 20.723C19.7392 20.8431 19.5664 20.9072 19.3887 20.9018C19.2109 20.8965 19.0423 20.822 18.9187 20.6943C18.8492 20.6215 18.7948 20.5356 18.7588 20.4416C18.7228 20.3476 18.7058 20.2474 18.7089 20.1468C18.712 20.0462 18.7351 19.9473 18.7767 19.8557C18.8184 19.7641 18.8779 19.6817 18.9517 19.6133C19.9363 18.6748 20.7198 17.5459 21.2545 16.2952C21.7893 15.0446 22.0642 13.6983 22.0625 12.3381C22.0659 9.69327 21.0249 7.15551 19.1659 5.27421ZM6.43975 6.71746C6.56785 6.59546 6.73917 6.52935 6.91602 6.53366C7.09286 6.53797 7.26075 6.61236 7.38275 6.74046C7.68175 7.03946 7.65157 7.53109 7.35688 7.83296C6.18384 9.03895 5.52868 10.6557 5.53125 12.3381C5.53125 14.1925 6.31182 15.8657 7.56388 17.0459C7.88013 17.3435 7.92325 17.8523 7.61419 18.1614C7.49572 18.2846 7.33441 18.3574 7.16368 18.3649C6.99294 18.3724 6.82587 18.314 6.69707 18.2016C5.87648 17.4613 5.22069 16.5567 4.77221 15.5466C4.32372 14.5364 4.09258 13.4433 4.09376 12.3381C4.09217 11.2924 4.2988 10.2569 4.70158 9.29187C5.10436 8.32688 5.69524 7.45173 6.43975 6.71746ZM16.6431 7.83296C16.3484 7.53109 16.3182 7.03946 16.6172 6.74046C16.7392 6.61236 16.9071 6.53797 17.084 6.53366C17.2608 6.52935 17.4321 6.59546 17.5602 6.71746C18.3046 7.45187 18.8953 8.32705 19.2981 9.29201C19.7009 10.257 19.9076 11.2924 19.9062 12.3381C19.9078 13.4434 19.677 14.5368 19.2287 15.5472C18.7805 16.5575 18.1249 17.4624 17.3044 18.2031C17.175 18.3159 17.0071 18.3744 16.8357 18.3663C16.6643 18.3583 16.5026 18.2844 16.3844 18.16C16.0767 17.8523 16.1199 17.3435 16.4361 17.0459C17.0788 16.4418 17.5908 15.7124 17.9404 14.9027C18.29 14.0929 18.4698 13.2201 18.4687 12.3381C18.4713 10.6557 17.8162 9.03895 16.6431 7.83296ZM12 10.5412C11.5234 10.5412 11.0664 10.7305 10.7294 11.0675C10.3924 11.4045 10.2031 11.8615 10.2031 12.3381C10.2031 12.8146 10.3924 13.2717 10.7294 13.6087C11.0664 13.9456 11.5234 14.135 12 14.135C12.4766 14.135 12.9336 13.9456 13.2706 13.6087C13.6076 13.2717 13.7969 12.8146 13.7969 12.3381C13.7969 11.8615 13.6076 11.4045 13.2706 11.0675C12.9336 10.7305 12.4766 10.5412 12 10.5412Z" fill="#98A2B3"/>
</svg>
